<?xml version="1.0" encoding="UTF-8"?>
<!DOCTYPE svg PUBLIC "-//W3C//DTD SVG 1.1//EN" "http://www.w3.org/Graphics/SVG/1.1/DTD/svg11.dtd">
<!-- Creator: CorelDRAW X6 -->
<svg xmlns="http://www.w3.org/2000/svg" xml:space="preserve" width="91px" height="117px" version="1.1" shape-rendering="geometricPrecision" text-rendering="geometricPrecision" image-rendering="optimizeQuality" fill-rule="evenodd" clip-rule="evenodd"
viewBox="0 0 555 712"
 xmlns:xlink="http://www.w3.org/1999/xlink">
 <g id="default">
  <metadata id="CorelCorpID_0Corel-Layer"/>
  <path fill="black" stroke="black" stroke-width="0.00230521" stroke-linecap="round" stroke-linejoin="round" d="M61 712c48,0 96,0 144,0 0,-38 0,-76 0,-114 85,0 171,0 257,0 0,-23 0,-45 0,-67 -86,0 -172,0 -257,0 0,-22 0,-44 0,-66 39,0 78,0 118,0 128,0 232,-104 232,-233 0,-128 -104,-232 -232,-232 -108,0 -215,0 -323,0 0,48 0,96 0,144 20,0 41,0 61,0l0 177 -61 0 0 144 61 0 0 66c-20,0 -41,0 -61,0 0,22 0,44 0,67 20,0 41,0 61,0 0,38 0,76 0,114zm262 -568c49,0 88,39 88,88 0,49 -39,89 -88,89 -40,0 -79,0 -118,0 0,-59 0,-118 0,-177 39,0 78,0 118,0z"/>
 </g>
</svg>
